<?xml version="1.0" encoding="UTF-8"?>
<!-- Original cubist guitarist: left oval head variation. Transparent background. -->
<svg xmlns="http://www.w3.org/2000/svg" viewBox="0 0 512 512" role="img" aria-labelledby="title">
  <title id="title">Guitarrista cubista con rostro ovalado a la izquierda</title>
  <g stroke="#293044" stroke-width="9" stroke-linecap="round" stroke-linejoin="round">
    <!-- Deliberately minimal head: a calm oval under a tilted hat. -->
    <ellipse cx="159" cy="119" rx="48" ry="58" fill="#F6C85F" transform="rotate(-13 159 119)"/>
    <path fill="#D85B70" d="M105 93c9-35 46-58 81-48 20 5 35 19 43 37-35-15-75-4-103 25z"/>
    <path fill="#4A7C93" d="M102 95c2-29 27-53 57-55l72 22-6 22z"/>
    <path fill="#E96D50" d="M131 166l45 11-17 30-36-17z"/>
    <circle cx="172" cy="111" r="7" fill="#293044" stroke="none"/>
    <path fill="none" d="M169 145c9 5 18 5 26-1"/>

    <path fill="#D85B70" d="M149 199l75-15 70 44-27 96-104 6-42-63z"/>
    <path fill="#4A7C93" d="M224 184l70 44 35 64-62 32-31-72z"/>
    <path fill="#F6C85F" d="M149 199l-28 68 42 63 39-54z"/>
    <path fill="#E96D50" d="M280 215l42 7 72 47-22 34-74-37-39-17z"/>
    <path fill="#F6C85F" d="M379 275l31-22 27 30-18 23-25 1z"/>

    <path fill="#F6C85F" d="M165 302c-28-10-57 12-57 43 0 31 27 54 57 44 6 42 55 59 84 31 30-30 11-78-31-77-10-19-28-33-53-41z"/>
    <path fill="#4A7C93" d="M218 343c42-1 61 47 31 77-29 28-78 11-84-31 26-9 42-27 53-46z"/>
    <circle cx="188" cy="357" r="18" fill="#293044"/>
    <path fill="none" stroke="#FAF0D3" stroke-width="5" d="M155 332c22 25 50 46 83 62"/>

    <path fill="#FAF0D3" d="M209 322l190-120 22 35-190 120z"/>
    <path fill="#D85B70" d="M396 203l47-29 27 40-48 29z"/>
    <path fill="#F6C85F" d="M438 177l20-13 29 39-19 14z"/>
    <path fill="none" stroke="#293044" stroke-width="5" d="M228 324l189-120M236 336l189-120"/>
    <path fill="#4A7C93" d="M465 172l21-9 10 17-21 10zM475 201l23 7-6 19-23-7zM456 222l17 18-14 14-17-17z"/>
    <path fill="#E96D50" d="M98 254l34-22 86 70-24 34-70-51z"/>
    <path fill="#F6C85F" d="M98 254l26 31-16 22-25-27z"/>
  </g>
</svg>
